<?xml version="1.0" encoding="UTF-8" standalone="no"?>
<!DOCTYPE svg PUBLIC "-//W3C//DTD SVG 1.1//EN"
 "http://www.w3.org/Graphics/SVG/1.1/DTD/svg11.dtd">
<!-- Generated by graphviz version 2.43.0 (0)
 -->
<!-- Title: G Pages: 1 -->
<svg width="994pt" height="1052pt"
 viewBox="0.00 0.00 994.48 1052.00" xmlns="http://www.w3.org/2000/svg" xmlns:xlink="http://www.w3.org/1999/xlink">
<g id="graph0" class="graph" transform="scale(1 1) rotate(0) translate(4 1048)">
<title>G</title>
<polygon fill="white" stroke="transparent" points="-4,4 -4,-1048 990.48,-1048 990.48,4 -4,4"/>
<!-- n22 -->
<g id="node1" class="node">
<title>n22</title>
<ellipse fill="none" stroke="forestgreen" cx="139.74" cy="-450" rx="139.98" ry="18"/>
<text text-anchor="middle" x="139.74" y="-446.3" font-family="Times,serif" font-size="14.00">R/download_and_process_movies.R</text>
</g>
<!-- n21 -->
<g id="node14" class="node">
<title>n21</title>
<ellipse fill="none" stroke="red" cx="143.74" cy="-378" rx="111.58" ry="18"/>
<text text-anchor="middle" x="143.74" y="-374.3" font-family="Times,serif" font-size="14.00">data/data&#45;gen/sent_movies.p</text>
</g>
<!-- n22&#45;&gt;n21 -->
<g id="edge11" class="edge">
<title>n22&#45;&gt;n21</title>
<path fill="none" stroke="black" d="M140.73,-431.7C141.17,-423.98 141.7,-414.71 142.19,-406.11"/>
<polygon fill="black" stroke="black" points="145.68,-406.29 142.76,-396.1 138.7,-405.89 145.68,-406.29"/>
</g>
<!-- n9 -->
<g id="node2" class="node">
<title>n9</title>
<ellipse fill="none" stroke="forestgreen" cx="399.74" cy="-522" rx="107.48" ry="18"/>
<text text-anchor="middle" x="399.74" y="-518.3" font-family="Times,serif" font-size="14.00">R/download_beige_book.R</text>
</g>
<!-- n8 -->
<g id="node4" class="node">
<title>n8</title>
<ellipse fill="none" stroke="red" cx="399.74" cy="-450" rx="102.88" ry="18"/>
<text text-anchor="middle" x="399.74" y="-446.3" font-family="Times,serif" font-size="14.00">R/organize_beige_book.R</text>
</g>
<!-- n9&#45;&gt;n8 -->
<g id="edge1" class="edge">
<title>n9&#45;&gt;n8</title>
<path fill="none" stroke="black" d="M399.74,-503.7C399.74,-495.98 399.74,-486.71 399.74,-478.11"/>
<polygon fill="black" stroke="black" points="403.24,-478.1 399.74,-468.1 396.24,-478.1 403.24,-478.1"/>
</g>
<!-- n19 -->
<g id="node3" class="node">
<title>n19</title>
<ellipse fill="none" stroke="forestgreen" cx="768.74" cy="-1026" rx="117.78" ry="18"/>
<text text-anchor="middle" x="768.74" y="-1022.3" font-family="Times,serif" font-size="14.00">R/download_fomc_minutes.R</text>
</g>
<!-- n18 -->
<g id="node7" class="node">
<title>n18</title>
<ellipse fill="none" stroke="red" cx="768.74" cy="-954" rx="116.18" ry="18"/>
<text text-anchor="middle" x="768.74" y="-950.3" font-family="Times,serif" font-size="14.00">R/select_minutes_with_sep.R</text>
</g>
<!-- n19&#45;&gt;n18 -->
<g id="edge4" class="edge">
<title>n19&#45;&gt;n18</title>
<path fill="none" stroke="black" d="M768.74,-1007.7C768.74,-999.98 768.74,-990.71 768.74,-982.11"/>
<polygon fill="black" stroke="black" points="772.24,-982.1 768.74,-972.1 765.24,-982.1 772.24,-982.1"/>
</g>
<!-- n7 -->
<g id="node12" class="node">
<title>n7</title>
<ellipse fill="none" stroke="red" cx="397.74" cy="-378" rx="122.38" ry="18"/>
<text text-anchor="middle" x="397.74" y="-374.3" font-family="Times,serif" font-size="14.00">data/data&#45;gen/sent_beigebook.p</text>
</g>
<!-- n8&#45;&gt;n7 -->
<g id="edge9" class="edge">
<title>n8&#45;&gt;n7</title>
<path fill="none" stroke="black" d="M399.24,-431.7C399.02,-423.98 398.76,-414.71 398.51,-406.11"/>
<polygon fill="black" stroke="black" points="402.01,-406 398.23,-396.1 395.01,-406.2 402.01,-406"/>
</g>
<!-- n11 -->
<g id="node5" class="node">
<title>n11</title>
<ellipse fill="none" stroke="red" cx="768.74" cy="-450" rx="100.98" ry="18"/>
<text text-anchor="middle" x="768.74" y="-446.3" font-family="Times,serif" font-size="14.00">R/organize_paragraphs.R</text>
</g>
<!-- n10 -->
<g id="node13" class="node">
<title>n10</title>
<ellipse fill="none" stroke="red" cx="652.74" cy="-378" rx="114.28" ry="18"/>
<text text-anchor="middle" x="652.74" y="-374.3" font-family="Times,serif" font-size="14.00">data/data&#45;gen/sent_minutes.p</text>
</g>
<!-- n11&#45;&gt;n10 -->
<g id="edge10" class="edge">
<title>n11&#45;&gt;n10</title>
<path fill="none" stroke="black" d="M741.54,-432.59C725.8,-423.09 705.8,-411.02 688.77,-400.74"/>
<polygon fill="black" stroke="black" points="690.54,-397.72 680.17,-395.55 686.92,-403.71 690.54,-397.72"/>
</g>
<!-- n20 -->
<g id="node15" class="node">
<title>n20</title>
<ellipse fill="none" stroke="red" cx="885.74" cy="-378" rx="100.98" ry="18"/>
<text text-anchor="middle" x="885.74" y="-374.3" font-family="Times,serif" font-size="14.00">data/data&#45;gen/sent_seps.p</text>
</g>
<!-- n11&#45;&gt;n20 -->
<g id="edge12" class="edge">
<title>n11&#45;&gt;n20</title>
<path fill="none" stroke="black" d="M796.17,-432.59C812.04,-423.09 832.22,-411.02 849.4,-400.74"/>
<polygon fill="black" stroke="black" points="851.29,-403.69 858.07,-395.55 847.69,-397.68 851.29,-403.69"/>
</g>
<!-- n4 -->
<g id="node6" class="node">
<title>n4</title>
<ellipse fill="none" stroke="red" cx="524.74" cy="-162" rx="68.49" ry="18"/>
<text text-anchor="middle" x="524.74" y="-158.3" font-family="Times,serif" font-size="14.00">R/plot_results.R</text>
</g>
<!-- n3 -->
<g id="node9" class="node">
<title>n3</title>
<ellipse fill="none" stroke="red" cx="524.74" cy="-90" rx="31.7" ry="18"/>
<text text-anchor="middle" x="524.74" y="-86.3" font-family="Times,serif" font-size="14.00">charts</text>
</g>
<!-- n4&#45;&gt;n3 -->
<g id="edge6" class="edge">
<title>n4&#45;&gt;n3</title>
<path fill="none" stroke="black" d="M524.74,-143.7C524.74,-135.98 524.74,-126.71 524.74,-118.11"/>
<polygon fill="black" stroke="black" points="528.24,-118.1 524.74,-108.1 521.24,-118.1 528.24,-118.1"/>
</g>
<!-- n17 -->
<g id="node17" class="node">
<title>n17</title>
<ellipse fill="none" stroke="red" cx="768.74" cy="-882" rx="27" ry="18"/>
<text text-anchor="middle" x="768.74" y="-878.3" font-family="Times,serif" font-size="14.00">pdfs</text>
</g>
<!-- n18&#45;&gt;n17 -->
<g id="edge14" class="edge">
<title>n18&#45;&gt;n17</title>
<path fill="none" stroke="black" d="M768.74,-935.7C768.74,-927.98 768.74,-918.71 768.74,-910.11"/>
<polygon fill="black" stroke="black" points="772.24,-910.1 768.74,-900.1 765.24,-910.1 772.24,-910.1"/>
</g>
<!-- n2 -->
<g id="node8" class="node">
<title>n2</title>
<ellipse fill="none" stroke="red" cx="524.74" cy="-18" rx="27" ry="18"/>
<text text-anchor="middle" x="524.74" y="-14.3" font-family="Times,serif" font-size="14.00">all</text>
</g>
<!-- n3&#45;&gt;n2 -->
<g id="edge5" class="edge">
<title>n3&#45;&gt;n2</title>
<path fill="none" stroke="black" d="M524.74,-71.7C524.74,-63.98 524.74,-54.71 524.74,-46.11"/>
<polygon fill="black" stroke="black" points="528.24,-46.1 524.74,-36.1 521.24,-46.1 528.24,-46.1"/>
</g>
<!-- n15 -->
<g id="node10" class="node">
<title>n15</title>
<ellipse fill="none" stroke="red" cx="768.74" cy="-738" rx="79.09" ry="18"/>
<text text-anchor="middle" x="768.74" y="-734.3" font-family="Times,serif" font-size="14.00">code/gcompfiles.sh</text>
</g>
<!-- n14 -->
<g id="node16" class="node">
<title>n14</title>
<ellipse fill="none" stroke="red" cx="768.74" cy="-666" rx="28.7" ry="18"/>
<text text-anchor="middle" x="768.74" y="-662.3" font-family="Times,serif" font-size="14.00">jsons</text>
</g>
<!-- n15&#45;&gt;n14 -->
<g id="edge13" class="edge">
<title>n15&#45;&gt;n14</title>
<path fill="none" stroke="black" d="M768.74,-719.7C768.74,-711.98 768.74,-702.71 768.74,-694.11"/>
<polygon fill="black" stroke="black" points="772.24,-694.1 768.74,-684.1 765.24,-694.1 772.24,-694.1"/>
</g>
<!-- n12 -->
<g id="node11" class="node">
<title>n12</title>
<ellipse fill="none" stroke="red" cx="768.74" cy="-522" rx="90.18" ry="18"/>
<text text-anchor="middle" x="768.74" y="-518.3" font-family="Times,serif" font-size="14.00">data/data&#45;gen/big_df.p</text>
</g>
<!-- n12&#45;&gt;n11 -->
<g id="edge2" class="edge">
<title>n12&#45;&gt;n11</title>
<path fill="none" stroke="black" d="M768.74,-503.7C768.74,-495.98 768.74,-486.71 768.74,-478.11"/>
<polygon fill="black" stroke="black" points="772.24,-478.1 768.74,-468.1 765.24,-478.1 772.24,-478.1"/>
</g>
<!-- n6 -->
<g id="node18" class="node">
<title>n6</title>
<ellipse fill="none" stroke="red" cx="524.74" cy="-306" rx="134.58" ry="18"/>
<text text-anchor="middle" x="524.74" y="-302.3" font-family="Times,serif" font-size="14.00">python/Calculate_similarites.ipynb</text>
</g>
<!-- n7&#45;&gt;n6 -->
<g id="edge15" class="edge">
<title>n7&#45;&gt;n6</title>
<path fill="none" stroke="black" d="M427.83,-360.41C445.11,-350.89 466.99,-338.83 485.58,-328.58"/>
<polygon fill="black" stroke="black" points="487.35,-331.6 494.42,-323.71 483.97,-325.47 487.35,-331.6"/>
</g>
<!-- n10&#45;&gt;n6 -->
<g id="edge16" class="edge">
<title>n10&#45;&gt;n6</title>
<path fill="none" stroke="black" d="M622.73,-360.59C605.2,-351 582.88,-338.8 563.98,-328.46"/>
<polygon fill="black" stroke="black" points="565.46,-325.28 555,-323.55 562.1,-331.42 565.46,-325.28"/>
</g>
<!-- n21&#45;&gt;n6 -->
<g id="edge17" class="edge">
<title>n21&#45;&gt;n6</title>
<path fill="none" stroke="black" d="M214.51,-364C277.96,-352.34 371.22,-335.2 438.91,-322.77"/>
<polygon fill="black" stroke="black" points="439.92,-326.14 449.13,-320.89 438.66,-319.26 439.92,-326.14"/>
</g>
<!-- n20&#45;&gt;n6 -->
<g id="edge18" class="edge">
<title>n20&#45;&gt;n6</title>
<path fill="none" stroke="black" d="M819.94,-364.24C760.39,-352.69 672.39,-335.63 607.97,-323.14"/>
<polygon fill="black" stroke="black" points="608.32,-319.64 597.84,-321.17 606.99,-326.51 608.32,-319.64"/>
</g>
<!-- n13 -->
<g id="node19" class="node">
<title>n13</title>
<ellipse fill="none" stroke="red" cx="768.74" cy="-594" rx="129.98" ry="18"/>
<text text-anchor="middle" x="768.74" y="-590.3" font-family="Times,serif" font-size="14.00">python/Process_ocr_results.ipynb</text>
</g>
<!-- n14&#45;&gt;n13 -->
<g id="edge19" class="edge">
<title>n14&#45;&gt;n13</title>
<path fill="none" stroke="black" d="M768.74,-647.7C768.74,-639.98 768.74,-630.71 768.74,-622.11"/>
<polygon fill="black" stroke="black" points="772.24,-622.1 768.74,-612.1 765.24,-622.1 772.24,-622.1"/>
</g>
<!-- n16 -->
<g id="node21" class="node">
<title>n16</title>
<ellipse fill="none" stroke="red" cx="768.74" cy="-810" rx="36.29" ry="18"/>
<text text-anchor="middle" x="768.74" y="-806.3" font-family="Times,serif" font-size="14.00">storage</text>
</g>
<!-- n17&#45;&gt;n16 -->
<g id="edge21" class="edge">
<title>n17&#45;&gt;n16</title>
<path fill="none" stroke="black" d="M768.74,-863.7C768.74,-855.98 768.74,-846.71 768.74,-838.11"/>
<polygon fill="black" stroke="black" points="772.24,-838.1 768.74,-828.1 765.24,-838.1 772.24,-838.1"/>
</g>
<!-- n5 -->
<g id="node20" class="node">
<title>n5</title>
<ellipse fill="none" stroke="red" cx="524.74" cy="-234" rx="50.09" ry="18"/>
<text text-anchor="middle" x="524.74" y="-230.3" font-family="Times,serif" font-size="14.00">similarities</text>
</g>
<!-- n6&#45;&gt;n5 -->
<g id="edge20" class="edge">
<title>n6&#45;&gt;n5</title>
<path fill="none" stroke="black" d="M524.74,-287.7C524.74,-279.98 524.74,-270.71 524.74,-262.11"/>
<polygon fill="black" stroke="black" points="528.24,-262.1 524.74,-252.1 521.24,-262.1 528.24,-262.1"/>
</g>
<!-- n13&#45;&gt;n12 -->
<g id="edge8" class="edge">
<title>n13&#45;&gt;n12</title>
<path fill="none" stroke="black" d="M768.74,-575.7C768.74,-567.98 768.74,-558.71 768.74,-550.11"/>
<polygon fill="black" stroke="black" points="772.24,-550.1 768.74,-540.1 765.24,-550.1 772.24,-550.1"/>
</g>
<!-- n5&#45;&gt;n4 -->
<g id="edge3" class="edge">
<title>n5&#45;&gt;n4</title>
<path fill="none" stroke="black" d="M524.74,-215.7C524.74,-207.98 524.74,-198.71 524.74,-190.11"/>
<polygon fill="black" stroke="black" points="528.24,-190.1 524.74,-180.1 521.24,-190.1 528.24,-190.1"/>
</g>
<!-- n16&#45;&gt;n15 -->
<g id="edge7" class="edge">
<title>n16&#45;&gt;n15</title>
<path fill="none" stroke="black" d="M768.74,-791.7C768.74,-783.98 768.74,-774.71 768.74,-766.11"/>
<polygon fill="black" stroke="black" points="772.24,-766.1 768.74,-756.1 765.24,-766.1 772.24,-766.1"/>
</g>
</g>
</svg>
